<?xml version="1.0" encoding="UTF-8"?>
<svg xmlns="http://www.w3.org/2000/svg" width="1600" height="1024" viewBox="0 0 1600 1024">
<title>PURGATORY Humanoid v0 AI modular reference</title>
<desc>Side Paper-Doll reference. Same Humanoid v0 bind/anchors as the runtime. Equipment is a separate visual. Headwear fits Crown. Do not redraw or fuse the character.</desc>
  <g id="caption" font-family="Segoe UI,Arial,sans-serif" fill="#292524">
<text x="40" y="48" font-size="22" font-weight="700">Humanoid v0 · Side</text>
<text x="40" y="72" font-size="14" fill="#57534e">Modular parts. Equipment is a separate visual — do not fuse.</text>
<text x="40" y="836.00" font-size="13" fill="#57534e">Assembled</text>
<text x="640" y="48" font-size="13" fill="#57534e">Exploded parts · same scale</text>
</g>
  <g id="assembled-side">
    <line x1="139.20" y1="800.00" x2="420.80" y2="800.00" stroke="#a8a29e" stroke-width="2"/>
    <polygon points="288.40,579.84 312.56,579.84 312.56,636.16 288.40,636.16" fill="#78716c" stroke="#292524" stroke-width="1.25"/>
    <polygon points="289.88,641.95 311.08,630.37 323.36,652.83 302.15,664.42" fill="#78716c" stroke="#292524" stroke-width="1.25"/>
    <polygon points="303.32,663.78 322.19,653.47 333.97,675.04 315.10,685.35" fill="#78716c" stroke="#292524" stroke-width="1.25"/>
    <polygon points="277.75,702.72 302.73,702.72 302.73,753.92 277.75,753.92" fill="#78716c" stroke="#292524" stroke-width="1.25"/>
    <polygon points="277.75,753.92 302.73,753.92 302.73,800.00 277.75,800.00" fill="#78716c" stroke="#292524" stroke-width="1.25"/>
    <polygon points="290.24,808.83 320.96,808.83 320.96,791.17 290.24,791.17" fill="#78716c" stroke="#292524" stroke-width="1.25"/>
    <polygon points="249.92,702.72 266.56,702.72 267.84,554.24 247.36,554.24" fill="#57534e" stroke="#292524" stroke-width="1.25"/>
    <polygon points="249.92,702.72 303.68,702.72 319.04,554.24 247.36,554.24" fill="#a8a29e" stroke="#292524" stroke-width="1.25"/>
    <polygon points="252.15,702.72 277.13,702.72 277.13,753.92 252.15,753.92" fill="#d6d3d1" stroke="#292524" stroke-width="1.25"/>
    <polygon points="252.15,753.92 277.13,753.92 277.13,800.00 252.15,800.00" fill="#d6d3d1" stroke="#292524" stroke-width="1.25"/>
    <polygon points="264.64,808.83 295.36,808.83 295.36,791.17 264.64,791.17" fill="#d6d3d1" stroke="#292524" stroke-width="1.25"/>
    <polygon points="267.96,554.24 327.88,554.24 342.07,472.32 280.57,472.32" fill="#f5f5f4" stroke="#292524" stroke-width="1.25"/>
    <polygon points="242.32,579.84 266.48,579.84 266.48,636.16 242.32,636.16" fill="#d6d3d1" stroke="#292524" stroke-width="1.25"/>
    <polygon points="242.32,636.16 266.48,636.16 266.48,661.76 242.32,661.76" fill="#d6d3d1" stroke="#292524" stroke-width="1.25"/>
    <polygon points="243.65,661.76 265.15,661.76 265.15,686.34 243.65,686.34" fill="#d6d3d1" stroke="#292524" stroke-width="1.25"/>
    <polygon points="288.96,578.96 294.96,584.96 288.96,590.96 282.96,584.96" fill="#b91c1c"/>
<text x="297.96" y="576.96" font-family="Segoe UI,Arial,sans-serif" font-size="11" font-weight="700" fill="#b91c1c">Chest</text>
    <polygon points="274.88,655.76 280.88,661.76 274.88,667.76 268.88,661.76" fill="#b91c1c"/>
<text x="283.88" y="653.76" font-family="Segoe UI,Arial,sans-serif" font-size="11" font-weight="700" fill="#b91c1c">Grip</text>
    <polygon points="280.00,794.00 286.00,800.00 280.00,806.00 274.00,800.00" fill="#b91c1c"/>
<text x="289.00" y="792.00" font-family="Segoe UI,Arial,sans-serif" font-size="11" font-weight="700" fill="#b91c1c">Foot</text>
    <ellipse cx="297.92" cy="489.35" rx="16.64" ry="9.86" fill="none" stroke="#b91c1c" stroke-width="1.75" stroke-dasharray="5 4"/>
    <polygon points="297.92,486.80 303.92,492.80 297.92,498.80 291.92,492.80" fill="#b91c1c"/>
<text x="306.92" y="484.80" font-family="Segoe UI,Arial,sans-serif" font-size="11" font-weight="700" fill="#b91c1c">Crown</text>
  </g>
  <g id="exploded-parts">
    <polygon points="690.04,200.00 749.96,200.00 764.15,118.08 702.65,118.08" fill="#f5f5f4" stroke="#292524" stroke-width="1.25"/>
    <circle cx="720.00" cy="200.00" r="3.5" fill="#292524"/>
    <ellipse cx="720.00" cy="135.11" rx="16.64" ry="9.86" fill="none" stroke="#b91c1c" stroke-width="1.75" stroke-dasharray="5 4"/>
    <polygon points="720.00,132.56 726.00,138.56 720.00,144.56 714.00,138.56" fill="#b91c1c"/>
<text x="729.00" y="130.56" font-family="Segoe UI,Arial,sans-serif" font-size="11" font-weight="700" fill="#b91c1c">Crown</text>
    <text x="734.00" y="204.00" font-family="Segoe UI,Arial,sans-serif" font-size="12" fill="#44403c">Head</text>
    <polygon points="1049.92,327.04 1066.56,327.04 1067.84,178.56 1047.36,178.56" fill="#57534e" stroke="#292524" stroke-width="1.25"/>
    <polygon points="1049.92,327.04 1103.68,327.04 1119.04,178.56 1047.36,178.56" fill="#a8a29e" stroke="#292524" stroke-width="1.25"/>
    <circle cx="1080.00" cy="240.00" r="3.5" fill="#292524"/>
    <polygon points="1088.96,203.28 1094.96,209.28 1088.96,215.28 1082.96,209.28" fill="#b91c1c"/>
<text x="1097.96" y="201.28" font-family="Segoe UI,Arial,sans-serif" font-size="11" font-weight="700" fill="#b91c1c">Chest</text>
    <text x="1094.00" y="244.00" font-family="Segoe UI,Arial,sans-serif" font-size="12" fill="#44403c">Torso</text>
    <polygon points="707.92,430.00 732.08,430.00 732.08,486.32 707.92,486.32" fill="#d6d3d1" stroke="#292524" stroke-width="1.25"/>
    <polygon points="707.92,486.32 732.08,486.32 732.08,511.92 707.92,511.92" fill="#d6d3d1" stroke="#292524" stroke-width="1.25"/>
    <circle cx="720.00" cy="430.00" r="3.5" fill="#292524"/>
    <text x="734.00" y="434.00" font-family="Segoe UI,Arial,sans-serif" font-size="12" fill="#44403c">ArmFront</text>
    <polygon points="1067.92,430.00 1092.08,430.00 1092.08,486.32 1067.92,486.32" fill="#78716c" stroke="#292524" stroke-width="1.25"/>
    <polygon points="1069.40,492.11 1090.60,480.53 1102.88,502.99 1081.67,514.58" fill="#78716c" stroke="#292524" stroke-width="1.25"/>
    <circle cx="1080.00" cy="430.00" r="3.5" fill="#292524"/>
    <text x="1094.00" y="434.00" font-family="Segoe UI,Arial,sans-serif" font-size="12" fill="#44403c">ArmBack</text>
    <polygon points="709.25,600.00 730.75,600.00 730.75,624.58 709.25,624.58" fill="#f5f5f4" stroke="#292524" stroke-width="1.25"/>
    <circle cx="720.00" cy="600.00" r="3.5" fill="#292524"/>
    <polygon points="740.48,594.00 746.48,600.00 740.48,606.00 734.48,600.00" fill="#b91c1c"/>
<text x="749.48" y="592.00" font-family="Segoe UI,Arial,sans-serif" font-size="11" font-weight="700" fill="#b91c1c">Grip</text>
    <text x="734.00" y="604.00" font-family="Segoe UI,Arial,sans-serif" font-size="12" fill="#44403c">HandFront</text>
    <polygon points="1070.56,605.15 1089.44,594.85 1101.22,616.41 1082.35,626.72" fill="#f5f5f4" stroke="#292524" stroke-width="1.25"/>
    <circle cx="1080.00" cy="600.00" r="3.5" fill="#292524"/>
    <polygon points="1097.97,584.18 1103.97,590.18 1097.97,596.18 1091.97,590.18" fill="#b91c1c"/>
<text x="1106.97" y="582.18" font-family="Segoe UI,Arial,sans-serif" font-size="11" font-weight="700" fill="#b91c1c">Grip</text>
    <text x="1094.00" y="604.00" font-family="Segoe UI,Arial,sans-serif" font-size="12" fill="#44403c">HandBack</text>
    <polygon points="707.51,780.00 732.49,780.00 732.49,831.20 707.51,831.20" fill="#d6d3d1" stroke="#292524" stroke-width="1.25"/>
    <polygon points="707.51,831.20 732.49,831.20 732.49,877.28 707.51,877.28" fill="#d6d3d1" stroke="#292524" stroke-width="1.25"/>
    <circle cx="720.00" cy="780.00" r="3.5" fill="#292524"/>
    <text x="734.00" y="784.00" font-family="Segoe UI,Arial,sans-serif" font-size="12" fill="#44403c">LegFront</text>
    <polygon points="1067.51,780.00 1092.49,780.00 1092.49,831.20 1067.51,831.20" fill="#78716c" stroke="#292524" stroke-width="1.25"/>
    <polygon points="1067.51,831.20 1092.49,831.20 1092.49,877.28 1067.51,877.28" fill="#78716c" stroke="#292524" stroke-width="1.25"/>
    <circle cx="1080.00" cy="780.00" r="3.5" fill="#292524"/>
    <text x="1094.00" y="784.00" font-family="Segoe UI,Arial,sans-serif" font-size="12" fill="#44403c">LegBack</text>
    <polygon points="720.00,948.83 750.72,948.83 750.72,931.17 720.00,931.17" fill="#a8a29e" stroke="#292524" stroke-width="1.25"/>
    <circle cx="720.00" cy="940.00" r="3.5" fill="#292524"/>
    <polygon points="735.36,934.00 741.36,940.00 735.36,946.00 729.36,940.00" fill="#b91c1c"/>
<text x="744.36" y="932.00" font-family="Segoe UI,Arial,sans-serif" font-size="11" font-weight="700" fill="#b91c1c">Foot</text>
    <text x="734.00" y="944.00" font-family="Segoe UI,Arial,sans-serif" font-size="12" fill="#44403c">FootFront</text>
    <polygon points="1080.00,948.83 1110.72,948.83 1110.72,931.17 1080.00,931.17" fill="#a8a29e" stroke="#292524" stroke-width="1.25"/>
    <circle cx="1080.00" cy="940.00" r="3.5" fill="#292524"/>
    <polygon points="1095.36,934.00 1101.36,940.00 1095.36,946.00 1089.36,940.00" fill="#b91c1c"/>
<text x="1104.36" y="932.00" font-family="Segoe UI,Arial,sans-serif" font-size="11" font-weight="700" fill="#b91c1c">Foot</text>
    <text x="1094.00" y="944.00" font-family="Segoe UI,Arial,sans-serif" font-size="12" fill="#44403c">FootBack</text>
  </g>
</svg>
